<svg width="24" height="23" viewBox="0 0 24 23" fill="none" xmlns="http://www.w3.org/2000/svg">
<path d="M11.9739 12.2231C12.525 12.2231 12.9717 11.8234 12.9717 11.3303C12.9717 10.8372 12.525 10.4375 11.9739 10.4375C11.4228 10.4375 10.9761 10.8372 10.9761 11.3303C10.9761 11.8234 11.4228 12.2231 11.9739 12.2231Z" fill="#ABABAB"/>
<path d="M15.9651 12.2231C16.5162 12.2231 16.9629 11.8234 16.9629 11.3303C16.9629 10.8372 16.5162 10.4375 15.9651 10.4375C15.414 10.4375 14.9673 10.8372 14.9673 11.3303C14.9673 11.8234 15.414 12.2231 15.9651 12.2231Z" fill="#ABABAB"/>
<path d="M7.98268 12.2231C8.53377 12.2231 8.98051 11.8234 8.98051 11.3303C8.98051 10.8372 8.53377 10.4375 7.98268 10.4375C7.4316 10.4375 6.98486 10.8372 6.98486 11.3303C6.98486 11.8234 7.4316 12.2231 7.98268 12.2231Z" fill="#ABABAB"/>
<path d="M19.0285 5.01832C17.3913 3.54388 15.2304 2.62673 12.9184 2.42498C10.6065 2.22324 8.28828 2.74955 6.36352 3.91316C4.43876 5.07678 3.02805 6.80479 2.37461 8.79928C1.72116 10.7938 1.86593 12.9298 2.78395 14.839C2.87963 15.0164 2.91103 15.2162 2.87375 15.4104L1.99567 19.1869C1.96184 19.3316 1.96875 19.4817 2.01577 19.6235C2.0628 19.7653 2.14847 19.8944 2.26508 19.9993C2.36068 20.0842 2.4745 20.1509 2.59969 20.1954C2.72487 20.2399 2.85883 20.2613 2.99349 20.2582H3.19306L7.46373 19.4904C7.68079 19.4671 7.9009 19.4947 8.10234 19.5708C10.2362 20.3921 12.6235 20.5217 14.8526 19.937C17.0817 19.3523 19.013 18.0901 20.3135 16.368C21.6141 14.6458 22.2023 12.5717 21.9768 10.503C21.7513 8.43445 20.7263 6.50105 19.0784 5.03617L19.0285 5.01832ZM19.8567 12.482C19.6616 13.548 19.1988 14.5605 18.5032 15.4433C17.8076 16.3261 16.8972 17.0563 15.8406 17.5788C14.784 18.1014 13.6087 18.4027 12.4032 18.46C11.1976 18.5174 9.99324 18.3294 8.88064 17.9102C8.48604 17.76 8.06216 17.6811 7.63336 17.678C7.44605 17.6792 7.25916 17.6941 7.07458 17.7227L4.26073 18.2316L4.82948 15.7139C4.94276 15.1687 4.86974 14.6055 4.61994 14.098C4.15136 13.1025 3.94123 12.0249 4.00538 10.9462C4.06952 9.86759 4.40627 8.81601 4.99028 7.87064C5.57428 6.92527 6.39034 6.11073 7.37702 5.48833C8.3637 4.86592 9.49532 4.45186 10.6867 4.2773C11.9372 4.09367 13.2187 4.17907 14.425 4.52645C15.6314 4.87382 16.7279 5.47318 17.624 6.27495C18.5201 7.07672 19.19 8.05786 19.5782 9.13721C19.9665 10.2166 20.0619 11.3631 19.8567 12.482Z" fill="#ABABAB"/>
</svg>
