<svg width="25" height="25" viewBox="0 0 25 25" fill="none" xmlns="http://www.w3.org/2000/svg">
<path d="M5.7961 9.91613C5.79507 8.81404 6.07125 7.72957 6.59897 6.76345C7.12669 5.79734 7.88884 4.98093 8.81461 4.39007C9.74038 3.79921 10.7997 3.45306 11.8943 3.38378C12.9888 3.31451 14.083 3.52435 15.0753 3.99382C16.0675 4.46328 16.9255 5.17715 17.5697 6.06909C18.2139 6.96103 18.6233 8.00211 18.7599 9.09562C18.8965 10.1891 18.7558 11.2996 18.351 12.3239C17.9461 13.3481 17.2903 14.2529 16.4443 14.9543V20.6166C16.4449 20.718 16.4193 20.8179 16.3701 20.9065C16.3208 20.995 16.2496 21.0693 16.1633 21.1219C16.0777 21.176 15.9797 21.2071 15.8788 21.2123C15.7778 21.2175 15.6772 21.1966 15.5865 21.1516L12.3033 19.4945L9.02013 21.1516C8.93617 21.1889 8.8457 21.2091 8.75393 21.2111C8.59703 21.2111 8.44657 21.1484 8.33563 21.037C8.22469 20.9255 8.16236 20.7743 8.16236 20.6166V14.9543C7.42231 14.3421 6.82632 13.5729 6.4172 12.7018C6.00808 11.8307 5.79597 10.8794 5.7961 9.91613ZM17.6274 9.91613C17.6274 8.85796 17.3152 7.82355 16.7301 6.9437C16.1451 6.06386 15.3136 5.37811 14.3408 4.97316C13.3679 4.56822 12.2974 4.46226 11.2646 4.6687C10.2319 4.87514 9.28321 5.3847 8.53862 6.13295C7.79403 6.88119 7.28696 7.83451 7.08153 8.87236C6.8761 9.9102 6.98153 10.986 7.3845 11.9636C7.78747 12.9412 8.46987 13.7768 9.34542 14.3647C10.221 14.9526 11.2503 15.2664 12.3033 15.2664C13.7148 15.2644 15.0678 14.7001 16.0659 13.6972C17.0639 12.6942 17.6255 11.3345 17.6274 9.91613ZM9.34549 19.658L12.0371 18.2982C12.1202 18.258 12.2112 18.2371 12.3033 18.2371C12.3955 18.2371 12.4865 18.258 12.5695 18.2982L15.2612 19.658V15.7419C14.3451 16.2111 13.3315 16.4556 12.3033 16.4556C11.2752 16.4556 10.2616 16.2111 9.34549 15.7419V19.658ZM12.3033 14.0774C11.4843 14.0774 10.6837 13.8334 10.0027 13.3761C9.32175 12.9189 8.79099 12.269 8.47757 11.5086C8.16415 10.7482 8.08215 9.91152 8.24193 9.10431C8.40171 8.2971 8.7961 7.55562 9.37522 6.97366C9.95434 6.39169 10.6922 5.99536 11.4955 5.8348C12.2987 5.67424 13.1313 5.75664 13.888 6.0716C14.6447 6.38656 15.2914 6.91992 15.7464 7.60424C16.2014 8.28857 16.4443 9.09311 16.4443 9.91613C16.4443 11.0198 16.008 12.0782 15.2314 12.8586C14.4548 13.639 13.4016 14.0774 12.3033 14.0774ZM12.3033 6.94378C11.7183 6.94378 11.1465 7.11811 10.66 7.44471C10.1736 7.77132 9.79451 8.23554 9.57064 8.77867C9.34677 9.32179 9.2882 9.91943 9.40233 10.496C9.51645 11.0726 9.79816 11.6022 10.2118 12.0179C10.6255 12.4336 11.1525 12.7167 11.7263 12.8314C12.3 12.9461 12.8948 12.8872 13.4352 12.6622C13.9757 12.4373 14.4377 12.0563 14.7627 11.5675C15.0877 11.0787 15.2612 10.504 15.2612 9.91613C15.2592 9.12842 14.9469 8.37353 14.3927 7.81653C13.8384 7.25953 13.0872 6.94574 12.3033 6.94378Z" fill="#7C7C7C"/>
<path fill-rule="evenodd" clip-rule="evenodd" d="M12.3021 1.78016C6.53078 1.78016 1.85223 6.65778 1.85223 12.6746C1.85223 18.6915 6.53078 23.5691 12.3021 23.5691C18.0734 23.5691 22.7519 18.6915 22.7519 12.6746C22.7519 6.65778 18.0734 1.78016 12.3021 1.78016ZM0.550781 12.6746C0.550781 5.90843 5.81201 0.42334 12.3021 0.42334C18.7921 0.42334 24.0534 5.90843 24.0534 12.6746C24.0534 19.4408 18.7921 24.9259 12.3021 24.9259C5.81201 24.9259 0.550781 19.4408 0.550781 12.6746Z" fill="#7C7C7C"/>
</svg>
