<svg width="20" height="20" viewBox="0 0 20 20" fill="none" xmlns="http://www.w3.org/2000/svg">
<path d="M10 1.25C9.50272 1.25 9.02581 1.44754 8.67417 1.79917C8.32254 2.15081 8.125 2.62772 8.125 3.125C8.125 3.62228 8.32254 4.09919 8.67417 4.45083C9.02581 4.80246 9.50272 5 10 5C10.4973 5 10.9742 4.80246 11.3258 4.45083C11.6775 4.09919 11.875 3.62228 11.875 3.125C11.875 2.62772 11.6775 2.15081 11.3258 1.79917C10.9742 1.44754 10.4973 1.25 10 1.25ZM6.875 3.125C6.875 2.2962 7.20424 1.50134 7.79029 0.915291C8.37634 0.32924 9.1712 0 10 0C10.8288 0 11.6237 0.32924 12.2097 0.915291C12.7958 1.50134 13.125 2.2962 13.125 3.125C13.125 3.9538 12.7958 4.74866 12.2097 5.33471C11.6237 5.92076 10.8288 6.25 10 6.25C9.1712 6.25 8.37634 5.92076 7.79029 5.33471C7.20424 4.74866 6.875 3.9538 6.875 3.125ZM16.875 2.5C16.5435 2.5 16.2255 2.6317 15.9911 2.86612C15.7567 3.10054 15.625 3.41848 15.625 3.75C15.625 4.08152 15.7567 4.39946 15.9911 4.63388C16.2255 4.8683 16.5435 5 16.875 5C17.2065 5 17.5245 4.8683 17.7589 4.63388C17.9933 4.39946 18.125 4.08152 18.125 3.75C18.125 3.41848 17.9933 3.10054 17.7589 2.86612C17.5245 2.6317 17.2065 2.5 16.875 2.5ZM14.375 3.75C14.375 3.08696 14.6384 2.45107 15.1072 1.98223C15.5761 1.51339 16.212 1.25 16.875 1.25C17.538 1.25 18.1739 1.51339 18.6428 1.98223C19.1116 2.45107 19.375 3.08696 19.375 3.75C19.375 4.41304 19.1116 5.04893 18.6428 5.51777C18.1739 5.98661 17.538 6.25 16.875 6.25C16.212 6.25 15.5761 5.98661 15.1072 5.51777C14.6384 5.04893 14.375 4.41304 14.375 3.75ZM1.875 3.75C1.875 3.41848 2.0067 3.10054 2.24112 2.86612C2.47554 2.6317 2.79348 2.5 3.125 2.5C3.45652 2.5 3.77446 2.6317 4.00888 2.86612C4.2433 3.10054 4.375 3.41848 4.375 3.75C4.375 4.08152 4.2433 4.39946 4.00888 4.63388C3.77446 4.8683 3.45652 5 3.125 5C2.79348 5 2.47554 4.8683 2.24112 4.63388C2.0067 4.39946 1.875 4.08152 1.875 3.75ZM3.125 1.25C2.46196 1.25 1.82607 1.51339 1.35723 1.98223C0.888392 2.45107 0.625 3.08696 0.625 3.75C0.625 4.41304 0.888392 5.04893 1.35723 5.51777C1.82607 5.98661 2.46196 6.25 3.125 6.25C3.78804 6.25 4.42393 5.98661 4.89277 5.51777C5.36161 5.04893 5.625 4.41304 5.625 3.75C5.625 3.08696 5.36161 2.45107 4.89277 1.98223C4.42393 1.51339 3.78804 1.25 3.125 1.25ZM3.875 16.2475C3.53654 16.2644 3.19817 16.2124 2.88045 16.0945C2.56272 15.9767 2.27228 15.7954 2.02677 15.5618C1.78125 15.3282 1.58579 15.0472 1.45226 14.7357C1.31873 14.4242 1.24992 14.0889 1.25 13.75V9.0625C1.25 8.97962 1.28292 8.90013 1.34153 8.84153C1.40013 8.78292 1.47962 8.75 1.5625 8.75H3.7675C3.8175 8.29125 3.98 7.865 4.22375 7.5H1.5625C0.7 7.5 2.22976e-08 8.2 2.22976e-08 9.0625V13.75C-5.83323e-05 14.2851 0.114423 14.8141 0.335752 15.3013C0.557081 15.7886 0.88013 16.2228 1.28319 16.5748C1.68626 16.9269 2.16 17.1885 2.67258 17.3423C3.18517 17.4961 3.72473 17.5383 4.255 17.4662C4.08676 17.0741 3.95942 16.6657 3.875 16.2475ZM15.745 17.4662C16.2753 17.5383 16.8148 17.4961 17.3274 17.3423C17.84 17.1885 18.3137 16.9269 18.7168 16.5748C19.1199 16.2228 19.4429 15.7886 19.6642 15.3013C19.8856 14.8141 20.0001 14.2851 20 13.75V9.0625C20 8.2 19.3 7.5 18.4375 7.5H15.7763C16.0212 7.865 16.1825 8.29125 16.2325 8.75H18.4375C18.5204 8.75 18.5999 8.78292 18.6585 8.84153C18.7171 8.90013 18.75 8.97962 18.75 9.0625V13.75C18.7501 14.0889 18.6813 14.4242 18.5477 14.7357C18.4142 15.0472 18.2187 15.3282 17.9732 15.5618C17.7277 15.7954 17.4373 15.9767 17.1196 16.0945C16.8018 16.2124 16.4635 16.2644 16.125 16.2475C16.0406 16.6657 15.9132 17.0741 15.745 17.4662ZM6.5625 7.5C5.7 7.5 5 8.2 5 9.0625V15C5 16.3261 5.52678 17.5979 6.46447 18.5355C7.40215 19.4732 8.67392 20 10 20C11.3261 20 12.5979 19.4732 13.5355 18.5355C14.4732 17.5979 15 16.3261 15 15V9.0625C15 8.2 14.3 7.5 13.4375 7.5H6.5625ZM6.25 9.0625C6.25 8.97962 6.28292 8.90013 6.34153 8.84153C6.40013 8.78292 6.47962 8.75 6.5625 8.75H13.4375C13.5204 8.75 13.5999 8.78292 13.6585 8.84153C13.7171 8.90013 13.75 8.97962 13.75 9.0625V15C13.75 15.9946 13.3549 16.9484 12.6517 17.6517C11.9484 18.3549 10.9946 18.75 10 18.75C9.00544 18.75 8.05161 18.3549 7.34835 17.6517C6.64509 16.9484 6.25 15.9946 6.25 15V9.0625Z" fill="#7C7C7C"/>
</svg>
