<svg width="24" height="25" viewBox="0 0 24 25" fill="none" xmlns="http://www.w3.org/2000/svg">
<path d="M9 12.5H15H9ZM9 16.6667H15H9ZM17 21.875H7C6.46957 21.875 5.96086 21.6555 5.58579 21.2648C5.21071 20.8741 5 20.3442 5 19.7917V5.20833C5 4.6558 5.21071 4.12589 5.58579 3.73519C5.96086 3.34449 6.46957 3.125 7 3.125H12.586C12.8512 3.12506 13.1055 3.23484 13.293 3.43021L18.707 9.06979C18.8946 9.2651 18.9999 9.53 19 9.80625V19.7917C19 20.3442 18.7893 20.8741 18.4142 21.2648C18.0391 21.6555 17.5304 21.875 17 21.875Z" stroke="#7C7C7C" stroke-width="1.5" stroke-linecap="round" stroke-linejoin="round"/>
</svg>
