<svg width="25" height="23" viewBox="0 0 25 23" fill="none" xmlns="http://www.w3.org/2000/svg">
<path d="M20.582 9.50601C21.1868 11.4454 21.7763 13.3527 22.3658 15.252C23.0012 17.3035 23.6443 19.355 24.2797 21.4066C24.54 22.24 24.3716 22.4804 23.5218 22.4804C16.249 22.4804 8.96856 22.4804 1.69578 22.4804C0.823049 22.4804 0.669929 22.248 0.94553 21.3425C2.0709 17.6561 3.18863 13.9617 4.33696 10.2753C4.53601 9.65025 4.43647 9.45793 3.7934 9.48999C2.85942 9.53807 1.91779 9.49799 0.976158 9.50601C0.570414 9.50601 0.248886 9.39382 0.264197 8.91299C0.279508 8.48024 0.593389 8.39208 0.960856 8.37605C1.93311 8.344 1.9331 8.33599 1.9331 7.28618C1.9331 5.19456 1.94841 3.11095 1.92544 1.01934C1.91778 0.346175 2.16277 0.11377 2.79819 0.11377C9.34369 0.129797 15.8969 0.129797 22.4424 0.11377C23.1007 0.11377 23.2998 0.394257 23.2921 1.04338C23.2691 3.2552 23.2998 5.46703 23.2768 7.67885C23.2692 8.20776 23.3763 8.48024 23.9275 8.38407C24.0424 8.36804 24.1649 8.38407 24.2797 8.38407C24.6548 8.36804 24.9534 8.50428 24.961 8.93703C24.961 9.36978 24.6778 9.50601 24.295 9.50601C23.0854 9.49799 21.8682 9.50601 20.582 9.50601ZM12.0767 14.8673C12.0767 13.6652 12.0614 12.4631 12.0844 11.261C12.092 10.8043 11.9542 10.668 11.5255 10.676C10.4002 10.7001 9.27478 10.6921 8.14941 10.676C7.80491 10.668 7.59822 10.7562 7.48338 11.1488C6.74845 13.6011 5.99054 16.0453 5.22499 18.4815C5.09484 18.8822 5.17907 19.0024 5.57716 19.0024C7.5676 18.9944 9.55804 18.9864 11.5485 19.0104C12.0078 19.0184 12.092 18.8181 12.0844 18.4014C12.0691 17.2153 12.0767 16.0453 12.0767 14.8673ZM13.1485 14.8593C13.1485 16.0373 13.1638 17.2153 13.1409 18.3934C13.1332 18.8021 13.2021 19.0184 13.6691 19.0104C15.6365 18.9864 17.6117 18.9944 19.5792 19.0104C19.9849 19.0104 20.1227 18.9303 19.9773 18.4735C19.2041 16.0373 18.4385 13.5851 17.6882 11.1408C17.5734 10.7642 17.3667 10.676 17.0146 10.684C15.9351 10.7001 14.8557 10.7241 13.7763 10.676C13.2097 10.652 13.1179 10.8844 13.1332 11.4053C13.1715 12.5513 13.1485 13.7053 13.1485 14.8593ZM12.6279 9.56211C13.9676 9.56211 15.2997 9.55408 16.6394 9.57011C17.0605 9.57812 17.1753 9.46593 17.0222 9.02517C16.7313 8.1757 16.4557 7.3102 16.2184 6.44471C16.1112 6.06004 15.9198 5.96387 15.56 5.96387C13.5695 5.9799 11.5714 5.9799 9.581 5.96387C9.22119 5.96387 9.02981 6.07608 8.92263 6.45273C8.68531 7.3022 8.44033 8.14364 8.14941 8.96907C7.95037 9.52202 8.16474 9.58614 8.61642 9.57813C9.95614 9.55409 11.2959 9.56211 12.6279 9.56211ZM7.32262 5.97189C6.89391 5.86771 6.71783 6.11615 6.603 6.53287C6.28912 7.63077 5.93695 8.72066 5.60776 9.81856C4.74268 12.6635 3.86997 15.5004 3.0202 18.3453C2.95896 18.5376 2.69865 18.8742 3.05081 18.9543C3.4489 19.0505 3.90057 19.1707 4.09962 18.4815C5.29388 14.4906 6.5341 10.5157 7.7743 6.54087C7.92741 6.04401 7.78196 5.9158 7.32262 5.97189ZM17.8184 5.97992C17.1217 5.83567 17.2978 6.2604 17.4203 6.65308C18.4615 9.98684 19.5103 13.3126 20.5514 16.6464C20.7658 17.3195 20.9725 18.0007 21.1868 18.6739C21.3629 19.2188 21.8222 19.0265 22.1438 18.9704C22.5572 18.8982 22.2433 18.5536 22.1897 18.3853C20.9725 14.4185 19.7323 10.4597 18.4997 6.50081C18.3926 6.11615 18.2318 5.87574 17.8184 5.97992ZM8.21067 21.3585C9.31307 21.3585 10.4155 21.3344 11.5179 21.3665C12.0078 21.3825 12.092 21.1742 12.0997 20.7254C12.1073 20.2285 11.9389 20.0923 11.4873 20.1083C10.8595 20.1404 10.2241 20.1163 9.58866 20.1163C8.15707 20.1163 6.72548 20.1163 5.30155 20.1163C4.78097 20.1163 4.38289 20.5491 4.45179 21.086C4.52069 21.5989 4.94174 21.3344 5.18672 21.3425C6.18959 21.3745 7.20014 21.3585 8.21067 21.3585ZM16.9992 21.3585C18.1016 21.3585 19.204 21.3665 20.2988 21.3505C20.4672 21.3505 20.6892 21.4467 20.7734 21.1822C20.8959 20.7895 20.4213 20.1244 20.0079 20.1244C17.9026 20.1164 15.7897 20.1324 13.6844 20.1163C13.2404 20.1083 13.1332 20.2846 13.1332 20.7174C13.1408 21.1421 13.1791 21.3986 13.692 21.3825C14.8021 21.3345 15.9045 21.3585 16.9992 21.3585ZM20.406 8.92099C20.7352 8.27186 21.2557 8.38406 21.7304 8.39207C22.0213 8.39207 22.2816 8.36002 22.2127 7.97536C22.0902 7.31822 22.5266 6.58094 21.9677 5.98791C21.9294 5.94784 21.8299 5.97189 21.761 5.97189C21.1486 5.97189 20.5438 5.98791 19.9313 5.96387C19.5256 5.94784 19.5256 6.14821 19.6251 6.46075C19.8854 7.2381 20.1304 8.03145 20.406 8.92099ZM3.01254 7.14191C3.01254 8.25584 3.01254 8.25585 4.11494 8.38407C4.18384 8.39209 4.2757 8.37607 4.32163 8.41613C4.84987 8.87292 4.91112 8.40011 5.01829 8.03948C5.07188 7.85516 5.12547 7.66282 5.18672 7.4785C5.63839 5.96388 5.6384 5.96387 4.11494 5.96387C3.01254 5.96387 3.01254 5.96387 3.01254 7.14191ZM4.17618 2.48586C4.26804 2.48586 4.35991 2.49388 4.45943 2.48586C4.85752 2.45381 5.34748 2.69424 5.34748 1.87683C5.34748 1.07544 4.88815 1.25976 4.47475 1.25175C4.1915 1.24373 3.90824 1.27578 3.63264 1.24373C3.14268 1.18763 2.99724 1.37997 2.99724 1.90087C2.99724 2.40574 3.18862 2.54197 3.61734 2.49389C3.80107 2.46984 3.98479 2.48586 4.17618 2.48586ZM7.54462 2.48586C7.65945 2.48586 7.78196 2.48586 7.89679 2.48586C8.28722 2.46984 8.71593 2.63813 8.73125 1.88482C8.74656 1.09145 8.28722 1.25174 7.86616 1.24373C7.55994 1.23571 7.25372 1.26776 6.95515 1.2357C6.46519 1.17961 6.38864 1.42805 6.38098 1.87683C6.37333 2.37369 6.54176 2.53395 6.98578 2.48586C7.16951 2.46984 7.35323 2.48586 7.54462 2.48586ZM10.8595 2.48586C10.9973 2.48586 11.1427 2.48586 11.2805 2.48586C11.6786 2.47785 12.0997 2.62212 12.1073 1.87683C12.115 1.15558 11.7322 1.23571 11.3112 1.24373C11.0049 1.25174 10.6987 1.27577 10.4002 1.2357C9.91785 1.17961 9.75709 1.36392 9.75709 1.88482C9.75709 2.38168 9.93316 2.53395 10.3695 2.48586C10.5303 2.46984 10.6987 2.48586 10.8595 2.48586ZM14.2968 1.24373C14.205 1.24373 14.1054 1.23571 14.0136 1.24373C13.6231 1.2838 13.1255 1.03537 13.1179 1.85279C13.1102 2.65417 13.5772 2.46984 13.9906 2.48586C14.2739 2.49388 14.5571 2.46183 14.8327 2.49389C15.3227 2.54998 15.4758 2.36567 15.4758 1.84476C15.4758 1.33989 15.2921 1.19564 14.8557 1.24373C14.672 1.26777 14.4882 1.24373 14.2968 1.24373ZM17.6882 2.48586C17.7801 2.48586 17.8796 2.49388 17.9715 2.48586C18.3619 2.44579 18.8595 2.69424 18.8672 1.87683C18.8749 1.07544 18.4079 1.25975 17.9945 1.24373C17.7112 1.23571 17.428 1.26776 17.1524 1.2357C16.6624 1.17961 16.5093 1.36392 16.5093 1.88482C16.5093 2.3897 16.693 2.53395 17.1294 2.48586C17.3131 2.46984 17.5045 2.48586 17.6882 2.48586ZM21.0108 2.48586C21.1715 2.48586 21.3399 2.47785 21.5007 2.48586C21.9294 2.5099 22.2433 2.51793 22.2433 1.86881C22.2433 1.2277 21.9371 1.21968 21.5007 1.24373C21.1715 1.25975 20.8423 1.26777 20.5208 1.24373C20.0997 1.21167 19.8854 1.30785 19.893 1.82875C19.9007 2.3256 20.0155 2.566 20.5208 2.48586C20.6816 2.46984 20.85 2.48586 21.0108 2.48586ZM4.15321 4.84194C4.26804 4.84194 4.39053 4.84995 4.50536 4.84194C4.89579 4.82591 5.33217 5.01024 5.34748 4.24892C5.36279 3.46356 4.91877 3.60781 4.49006 3.5998C4.18384 3.5998 3.87761 3.62383 3.57904 3.59178C3.09674 3.53568 3.00489 3.76809 2.99724 4.22488C2.98958 4.70571 3.14269 4.89804 3.59437 4.84194C3.7781 4.82591 3.96948 4.84194 4.15321 4.84194ZM7.54462 4.84194C7.63649 4.84194 7.73603 4.84995 7.82789 4.84194C8.21833 4.80187 8.71593 5.05831 8.72358 4.2409C8.73124 3.44753 8.2719 3.61584 7.8585 3.60782C7.57524 3.59981 7.29201 3.63186 7.01641 3.5998C6.53411 3.5437 6.36566 3.72001 6.37332 4.24892C6.38097 4.74578 6.54941 4.89804 6.98578 4.84996C7.16951 4.82592 7.36089 4.84194 7.54462 4.84194ZM10.9131 4.84194C11.0279 4.84194 11.1504 4.84995 11.2652 4.84194C11.6557 4.8179 12.092 5.01024 12.1073 4.24892C12.1227 3.46356 11.6786 3.60781 11.2499 3.5998C10.9437 3.5998 10.6375 3.62383 10.3389 3.59178C9.85662 3.53568 9.75709 3.76809 9.75709 4.22488C9.74943 4.70571 9.89489 4.89804 10.3542 4.84194C10.538 4.82591 10.7294 4.84194 10.9131 4.84194ZM14.3657 3.60782C14.2279 3.60782 14.0825 3.60782 13.9447 3.60782C13.5466 3.61584 13.1255 3.47958 13.1255 4.21686C13.1179 4.94612 13.5083 4.84996 13.9294 4.84996C14.2356 4.84195 14.5418 4.81791 14.8404 4.85798C15.3303 4.91408 15.4834 4.72174 15.4758 4.20084C15.4758 3.69597 15.2844 3.55974 14.8557 3.60782C14.6949 3.62385 14.5265 3.60782 14.3657 3.60782ZM17.627 4.84194C17.7648 4.84194 17.9102 4.84194 18.048 4.84194C18.4538 4.83392 18.8672 4.97018 18.8672 4.2329C18.8672 3.50364 18.4768 3.59981 18.0634 3.60782C17.7572 3.60782 17.4509 3.63987 17.1524 3.5998C16.6547 3.5437 16.5169 3.74406 16.5169 4.25694C16.5169 4.76983 16.716 4.89804 17.137 4.84996C17.2978 4.82592 17.4662 4.84194 17.627 4.84194ZM21.072 4.84194C21.1639 4.84194 21.2634 4.84995 21.3553 4.84194C21.7457 4.80187 22.2433 5.05032 22.251 4.2329C22.2586 3.43152 21.7916 3.61583 21.3782 3.5998C21.095 3.59179 20.8117 3.62383 20.5361 3.59178C20.0462 3.53568 19.893 3.72 19.893 4.2409C19.893 4.74577 20.0768 4.89002 20.5131 4.84194C20.6969 4.82591 20.8806 4.84194 21.072 4.84194Z" fill="#7C7C7C"/>
</svg>
