<svg width="28" height="28" viewBox="0 0 28 28" fill="none" xmlns="http://www.w3.org/2000/svg">
<path fill-rule="evenodd" clip-rule="evenodd" d="M13.3196 2.98475C13.5737 2.73063 13.9857 2.73063 14.2398 2.98475L24.5748 13.3198C24.7609 13.5059 24.8166 13.7858 24.7159 14.0289C24.6152 14.2721 24.3779 14.4306 24.1147 14.4306H21.818C21.4586 14.4306 21.1673 14.1393 21.1673 13.7799C21.1673 13.4205 21.4586 13.1292 21.818 13.1292H22.5437L13.7797 4.36514L5.01567 13.1292H5.74135C6.10074 13.1292 6.39208 13.4205 6.39208 13.7799C6.39208 14.1393 6.10074 14.4306 5.74135 14.4306H3.44469C3.18149 14.4306 2.94422 14.2721 2.8435 14.0289C2.74278 13.7858 2.79845 13.5059 2.98456 13.3198L13.3196 2.98475Z" fill="#7C7C7C"/>
<path fill-rule="evenodd" clip-rule="evenodd" d="M5.74154 13.1293C6.10093 13.1293 6.39227 13.4207 6.39227 13.7801V21.8184C6.39227 22.2549 6.56568 22.6736 6.87435 22.9823C7.18303 23.2909 7.60168 23.4643 8.03821 23.4643H19.5215C19.9581 23.4643 20.3767 23.2909 20.6854 22.9823C20.9941 22.6736 21.1675 22.2549 21.1675 21.8184V13.7801C21.1675 13.4207 21.4588 13.1293 21.8182 13.1293C22.1776 13.1293 22.4689 13.4207 22.4689 13.7801V21.8184C22.4689 22.6001 22.1584 23.3498 21.6057 23.9025C21.0529 24.4553 20.3032 24.7658 19.5215 24.7658H8.03821C7.25651 24.7658 6.50683 24.4553 5.95409 23.9025C5.40135 23.3498 5.09082 22.6001 5.09082 21.8184V13.7801C5.09082 13.4207 5.38216 13.1293 5.74154 13.1293Z" fill="#7C7C7C"/>
<path fill-rule="evenodd" clip-rule="evenodd" d="M10.833 13.7801C10.833 13.4207 11.1243 13.1293 11.4837 13.1293H16.0771C16.4365 13.1293 16.7278 13.4207 16.7278 13.7801V18.3734C16.7278 18.7328 16.4365 19.0241 16.0771 19.0241H11.4837C11.1243 19.0241 10.833 18.7328 10.833 18.3734V13.7801ZM12.1345 14.4308V17.7227H15.4263V14.4308H12.1345Z" fill="#7C7C7C"/>
</svg>
