<svg width="23" height="27" viewBox="0 0 23 27" fill="none" xmlns="http://www.w3.org/2000/svg">
<path d="M22.3344 17.8025C21.9746 17.1655 21.5841 16.5364 21.209 15.9073C20.5889 14.8722 19.9535 13.853 19.2951 12.8497C18.8511 12.1649 18.2999 11.6234 17.6185 11.2093C16.8377 10.7316 15.9803 10.5325 15.0769 10.5405C13.9056 10.5484 12.742 10.5405 11.3946 10.5405C10.2309 10.5644 8.89121 10.5007 7.55149 10.5644C6.2577 10.6281 5.19358 11.2332 4.3285 12.1967C3.86917 12.6984 3.53232 13.3035 3.17251 13.8769C2.56006 14.8563 1.96295 15.8357 1.37347 16.8231C1.05193 17.3566 0.707416 17.8821 0.49306 18.4793C0.309326 18.9969 0.202149 19.5304 0.301671 20.0957C0.42416 20.8124 0.799281 21.3857 1.28158 21.8874C2.08542 22.7314 2.88925 23.5754 3.70074 24.4115C4.38974 25.1202 5.34669 25.2476 6.1888 24.738C6.3266 24.6504 6.33427 24.6584 6.34958 24.8336C6.3802 25.1521 6.3955 25.4706 6.43378 25.7811C6.47971 26.1235 6.75531 26.3385 7.05388 26.2908C7.40604 26.2271 7.58976 25.9643 7.55149 25.598C7.49024 25.0088 7.43666 24.4115 7.39073 23.8223C7.31417 22.8907 7.24528 21.959 7.16107 21.0353C7.06155 19.8011 6.95437 18.5749 6.84719 17.3486C6.80891 16.9266 6.77829 16.5046 6.7247 16.0825C6.69407 15.8198 6.5333 15.6685 6.28832 15.6048C6.05866 15.549 5.87492 15.6446 5.73712 15.8277C5.62229 15.971 5.52278 16.1223 5.4156 16.2736C4.77254 17.1893 4.12945 18.113 3.48639 19.0287C3.23375 19.3791 3.24908 19.6498 3.54764 19.9604C4.29023 20.7248 5.02516 21.4972 5.76009 22.2616C5.85196 22.3572 5.93618 22.4607 5.98977 22.5801C6.15819 22.9862 6.03569 23.464 5.69119 23.7188C5.33904 23.9895 4.8797 23.9577 4.54286 23.6312C4.34381 23.4321 4.15242 23.2251 3.96103 23.026C3.28734 22.3253 2.60601 21.6246 1.93997 20.9239C1.54954 20.5098 1.32752 20.032 1.40407 19.4348C1.45001 19.0526 1.58782 18.7102 1.77155 18.3838C2.15433 17.7229 2.55241 17.0699 2.94285 16.417C3.56295 15.3818 4.19835 14.3626 4.87204 13.3593C5.32372 12.6745 5.95147 12.2286 6.68641 11.918C7.09215 11.7508 7.50555 11.7269 7.93427 11.7269H9.77926C9.80222 11.7189 9.8405 11.7189 9.89409 11.7189H11.586C12.1448 11.7189 12.7113 11.7269 13.2779 11.7189C13.3161 11.7189 13.3391 11.7189 13.3621 11.7269H14.7247C14.7477 11.7189 14.7707 11.7189 14.8013 11.7189C14.9927 11.7269 15.1841 11.7269 15.3831 11.7269H15.4138C16.1487 11.7269 16.7841 12.0215 17.3889 12.4356C17.8712 12.778 18.208 13.2557 18.5296 13.7574C19.2186 14.8085 19.8769 15.8755 20.52 16.9584C20.8569 17.5317 21.232 18.0812 21.5152 18.6943C21.8521 19.4428 21.8444 20.1515 21.2932 20.8044C21.232 20.884 21.1707 20.9557 21.1018 21.0194C20.4817 21.6644 19.8693 22.3094 19.2492 22.9464C18.9889 23.2092 18.7592 23.5117 18.4607 23.7347C18.0626 24.0373 17.4654 23.9019 17.2128 23.464C16.9755 23.0579 17.0291 22.6199 17.3506 22.2775C18.1009 21.5051 18.8511 20.7248 19.5937 19.9445C19.8769 19.6498 19.8999 19.3711 19.6549 19.0367C19.4176 18.7023 19.1879 18.3678 18.9506 18.0334C18.4377 17.3008 17.9248 16.5762 17.4119 15.8516C17.2741 15.6446 17.0827 15.549 16.8453 15.6048C16.5851 15.6685 16.4396 15.8437 16.4013 16.1144C16.3937 16.1781 16.386 16.2498 16.3783 16.3135C16.3171 17.0619 16.2559 17.8104 16.1946 18.5589C16.0874 19.7772 15.9803 20.9955 15.8731 22.2138C15.7736 23.3525 15.6741 24.4912 15.5822 25.6378C15.5669 25.8448 15.6128 26.028 15.7812 26.1554C15.9726 26.2987 16.187 26.3465 16.4013 26.235C16.608 26.1315 16.6922 25.9404 16.7152 25.7174C16.7382 25.4149 16.7611 25.1202 16.7841 24.8176C16.7917 24.6584 16.8071 24.6504 16.9372 24.73C17.8023 25.2476 18.7516 25.1202 19.4559 24.3876C20.1449 23.671 20.8339 22.9623 21.5152 22.2457C21.8751 21.8714 22.2425 21.5051 22.5028 21.0353C22.7554 20.5735 22.8932 20.0798 22.8703 19.5463C22.8396 18.9173 22.6329 18.3439 22.3344 17.8025ZM5.94381 20.8283C5.67587 20.5337 5.40793 20.247 5.13233 19.9604C4.98687 19.8011 4.83376 19.6419 4.68065 19.4826C4.62706 19.4348 4.61175 19.395 4.65769 19.3313C5.00984 18.8376 5.3467 18.3519 5.69885 17.8662C5.70651 17.8502 5.71415 17.8423 5.75243 17.8184C5.83664 18.8217 5.92086 19.8091 6.00507 20.7885C5.98976 20.8044 5.96678 20.8124 5.94381 20.8283ZM17.3812 17.8423C17.3889 17.8343 17.4042 17.8343 17.4119 17.8264C17.4654 17.898 17.5114 17.9697 17.565 18.0334C17.8635 18.4554 18.1545 18.8775 18.453 19.2995C18.4913 19.3552 18.5372 19.403 18.4683 19.4747C18.0473 19.9046 17.6262 20.3426 17.2052 20.7805C17.1975 20.7885 17.1822 20.7965 17.1209 20.8283C17.2128 19.8091 17.297 18.8217 17.3812 17.8423Z" fill="#7C7C7C"/>
<path d="M11.7386 0.467609C9.36539 0.364093 7.35197 2.24328 7.23714 4.77542C7.1223 7.35535 9.12042 9.47346 11.5549 9.47346C13.7061 9.50531 15.9032 7.70573 15.8956 4.91877C15.8956 2.64143 14.1807 0.579087 11.7386 0.467609ZM11.5702 8.30293C9.7941 8.30293 8.38547 6.83777 8.36251 5.02227C8.33188 3.10325 9.87831 1.59034 11.5702 1.64608C13.2621 1.5983 14.8085 3.11123 14.7779 5.03821C14.7472 6.83779 13.3233 8.30293 11.5702 8.30293Z" fill="#7C7C7C"/>
<path d="M4.62729 12.3718C4.26748 12.3718 3.97656 12.6744 3.97656 13.0486V18.2085C3.97656 18.5827 4.26748 18.8853 4.62729 18.8853C4.9871 18.8853 5.27799 18.5827 5.27799 18.2085V13.0486C5.27799 12.6823 4.9871 12.3718 4.62729 12.3718Z" fill="#7C7C7C"/>
<path d="M7.19217 12.9531C7.13093 12.8018 7.06969 12.6505 7.00845 12.4992L6.37305 11.8383V25.6139C6.37305 25.9881 6.66394 26.2907 7.02375 26.2907C7.38356 26.2907 7.67448 25.9881 7.67448 25.6139V14.1555C7.5673 13.8847 7.46014 13.622 7.35296 13.3513L7.19217 12.9531Z" fill="#7C7C7C"/>
<path d="M9.3656 21.3062C9.33498 21.2982 9.31203 21.2823 9.28906 21.2664V25.7096C9.28906 26.0838 9.57996 26.3864 9.93977 26.3864C10.2996 26.3864 10.5905 26.0838 10.5905 25.7096V21.7362L10.5599 21.7282C10.1541 21.5849 9.74072 21.4415 9.3656 21.3062Z" fill="#7C7C7C"/>
<path d="M13.3012 20.0322C13.2552 20.1516 13.2169 20.271 13.171 20.3825C13.1251 20.5099 13.0791 20.6373 13.0256 20.7807C12.8801 21.1549 12.6504 21.4495 12.3672 21.6486V25.7016C12.3672 26.0759 12.6581 26.3785 13.0179 26.3785C13.3777 26.3785 13.6686 26.0759 13.6686 25.7016V18.997L13.6227 19.1164L13.3012 20.0322Z" fill="#7C7C7C"/>
<path d="M16.2705 10.8828L15.459 12.1728V25.7094C15.459 26.0837 15.7499 26.3863 16.1097 26.3863C16.4695 26.3863 16.7604 26.0837 16.7604 25.7094V11.5278C16.7528 11.2173 16.5461 10.9625 16.2705 10.8828Z" fill="#7C7C7C"/>
<path d="M18.1546 12.0215C17.7948 12.0215 17.5039 12.3241 17.5039 12.6984V17.691C17.5039 18.0653 17.7948 18.3678 18.1546 18.3678C18.5144 18.3678 18.8054 18.0653 18.8054 17.691V12.6984C18.8054 12.3241 18.5144 12.0215 18.1546 12.0215Z" fill="#7C7C7C"/>
<path d="M12.6574 15.5173C13.155 14.2751 13.6603 13.0249 14.1503 11.7827C14.1656 11.7509 14.1809 11.727 14.1962 11.7031H12.9637C12.9637 11.719 12.956 11.735 12.9483 11.7588C12.5503 12.7383 12.1598 13.7177 11.7617 14.6971C11.5856 15.143 11.4096 15.5889 11.2335 16.0348C11.2105 16.0826 11.2029 16.1702 11.1493 16.1702C11.088 16.1702 11.0804 16.0906 11.0651 16.0428C10.7512 15.2704 10.445 14.498 10.1387 13.7336C9.87846 13.0806 9.61816 12.4436 9.36553 11.7986C9.35022 11.7588 9.33492 11.727 9.33492 11.7031H8.09473C8.11004 11.719 8.11768 11.735 8.12533 11.7588C8.27079 12.1092 8.40859 12.4595 8.55404 12.8179C9.12055 14.2352 9.68707 15.6526 10.2612 17.062C10.3301 17.2372 10.3148 17.3725 10.2536 17.5398C10.0086 18.1927 9.77127 18.8457 9.53395 19.4986C9.44974 19.7375 9.54927 19.9366 9.77894 20.0162C10.2765 20.1993 10.7818 20.3745 11.2794 20.5497C11.3483 20.5736 11.4172 20.5895 11.4708 20.5895C11.6316 20.5895 11.7464 20.486 11.823 20.2789C11.9148 20.0321 11.9991 19.7853 12.0909 19.5384C12.3053 18.9412 12.5196 18.352 12.734 17.7548C12.8335 17.4681 12.7569 17.2929 12.4813 17.1815C12.3818 17.1496 12.2823 17.1098 12.1828 17.0779C12.068 17.0541 12.0526 16.9983 12.0986 16.8948C12.29 16.4329 12.4737 15.9791 12.6574 15.5173Z" fill="#7C7C7C"/>
</svg>
