<svg width="20" height="15" viewBox="0 0 20 15" fill="none" xmlns="http://www.w3.org/2000/svg">
<path d="M1.88621 0.107914L9.59055 0.12696L17.2949 0.0888672H17.2987C18.3344 0.0888672 19.1562 1.07547 19.1562 2.30968V12.6481C19.1562 13.8823 18.3344 14.8689 17.2987 14.8689H1.87495C0.839195 14.8689 0.0173492 13.8823 0.0173492 12.6481V2.30968C0.0173492 1.07547 0.83169 0.107914 1.88621 0.107914ZM2.49039 1.63163L9.37289 8.01979L9.39916 8.04264L9.42168 8.06931C9.50424 8.16073 9.60181 8.17216 9.65435 8.17216C9.70689 8.17216 9.80446 8.15692 9.88326 8.06169L9.90578 8.03503L16.4843 1.60115L9.59055 1.64686L2.49039 1.63163ZM1.87495 13.3452H17.2987C17.43 13.3452 17.6552 13.0938 17.6552 12.6481V2.55347L10.9903 9.0902C10.6526 9.47112 10.176 9.69206 9.66936 9.69968H9.64684C9.14773 9.69968 8.68239 9.49017 8.34089 9.12448L1.51093 2.77822V12.6481C1.51844 13.0938 1.7436 13.3452 1.87495 13.3452Z" fill="#7C7C7C"/>
</svg>
