<svg width="20" height="22" viewBox="0 0 20 22" fill="none" xmlns="http://www.w3.org/2000/svg">
<path fill-rule="evenodd" clip-rule="evenodd" d="M0.0175781 2.36261H4.10054V3.97064H0.0175781V2.36261ZM18.3909 3.97064H8.18351V2.36261H18.3909V3.97064ZM0.0175781 9.86677H12.2665V11.4748H0.0175781V9.86677ZM18.3909 11.4748H16.3494V9.86677H18.3909V11.4748ZM0.0175781 17.3709H2.05906V18.979H0.0175781V17.3709ZM5.37647 18.175C5.37647 17.7309 5.71922 17.3709 6.14203 17.3709H18.3909C18.8137 17.3709 19.1565 17.7309 19.1565 18.175C19.1565 18.619 18.8137 18.979 18.3909 18.979H6.14203C5.71922 18.979 5.37647 18.619 5.37647 18.175Z" fill="#7C7C7C"/>
<path fill-rule="evenodd" clip-rule="evenodd" d="M6.142 1.82654C5.43733 1.82654 4.86607 2.42649 4.86607 3.16657C4.86607 3.90665 5.43733 4.5066 6.142 4.5066C6.84667 4.5066 7.41793 3.90665 7.41793 3.16657C7.41793 2.42649 6.84667 1.82654 6.142 1.82654ZM3.33496 3.16657C3.33496 1.5384 4.59171 0.218506 6.142 0.218506C7.69228 0.218506 8.94904 1.5384 8.94904 3.16657C8.94904 4.79474 7.69228 6.11463 6.142 6.11463C4.59171 6.11463 3.33496 4.79474 3.33496 3.16657Z" fill="#7C7C7C"/>
<path fill-rule="evenodd" clip-rule="evenodd" d="M14.308 9.33057C13.6033 9.33057 13.0321 9.93052 13.0321 10.6706C13.0321 11.4107 13.6033 12.0106 14.308 12.0106C15.0127 12.0106 15.5839 11.4107 15.5839 10.6706C15.5839 9.93052 15.0127 9.33057 14.308 9.33057ZM11.501 10.6706C11.501 9.04243 12.7577 7.72253 14.308 7.72253C15.8583 7.72253 17.1151 9.04243 17.1151 10.6706C17.1151 12.2988 15.8583 13.6187 14.308 13.6187C12.7577 13.6187 11.501 12.2988 11.501 10.6706Z" fill="#7C7C7C"/>
<path fill-rule="evenodd" clip-rule="evenodd" d="M4.10001 16.835C3.39533 16.835 2.82408 17.435 2.82408 18.1751C2.82408 18.9151 3.39533 19.5151 4.10001 19.5151C4.80468 19.5151 5.37593 18.9151 5.37593 18.1751C5.37593 17.435 4.80468 16.835 4.10001 16.835ZM1.29297 18.1751C1.29297 16.5469 2.54972 15.227 4.10001 15.227C5.65029 15.227 6.90705 16.5469 6.90705 18.1751C6.90705 19.8032 5.65029 21.1231 4.10001 21.1231C2.54972 21.1231 1.29297 19.8032 1.29297 18.1751Z" fill="#7C7C7C"/>
</svg>
