<svg width="24" height="26" viewBox="0 0 24 26" fill="none" xmlns="http://www.w3.org/2000/svg">
<path fill-rule="evenodd" clip-rule="evenodd" d="M8.49414 3.01843C8.49414 2.65904 8.78548 2.36771 9.14486 2.36771H15.1698C15.5292 2.36771 15.8205 2.65904 15.8205 3.01843C15.8205 3.37781 15.5292 3.66915 15.1698 3.66915H9.14486C8.78548 3.66915 8.49414 3.37781 8.49414 3.01843Z" fill="#7C7C7C"/>
<path d="M22.9477 16.9593C22.5878 16.3469 22.1974 15.7421 21.8223 15.1373C21.2022 14.1421 20.5668 13.1622 19.9084 12.1976C19.4644 11.5392 18.9132 11.0186 18.2318 10.6205C17.451 10.1612 16.5936 9.9698 15.6902 9.97746C14.5189 9.98511 13.3553 9.97746 12.0079 9.97746C10.8442 10.0004 9.50449 9.93918 8.16477 10.0004C6.87098 10.0617 5.80686 10.6435 4.94178 11.5698C4.48245 12.0521 4.1456 12.6339 3.78579 13.1851C3.17334 14.1268 2.57623 15.0684 1.98675 16.0177C1.66522 16.5306 1.3207 17.0359 1.10634 17.6101C0.922608 18.1077 0.81543 18.6206 0.914952 19.1641C1.03744 19.8531 1.41256 20.4043 1.89486 20.8866C2.6987 21.6981 3.50253 22.5096 4.31402 23.3134C5.00302 23.9948 5.95997 24.1173 6.80208 23.6273C6.93988 23.5431 6.94755 23.5508 6.96286 23.7192C6.99348 24.0254 7.00879 24.3316 7.04706 24.6302C7.093 24.9594 7.36859 25.1661 7.66716 25.1202C8.01932 25.0589 8.20305 24.8063 8.16477 24.4541C8.10352 23.8876 8.04994 23.3134 8.00401 22.7469C7.92745 21.8512 7.85856 20.9555 7.77435 20.0675C7.67483 18.8809 7.56765 17.7019 7.46047 16.523C7.42219 16.1172 7.39157 15.7115 7.33798 15.3057C7.30736 15.0531 7.14658 14.9076 6.90161 14.8464C6.67194 14.7928 6.4882 14.8847 6.3504 15.0607C6.23557 15.1985 6.13606 15.344 6.02888 15.4895C5.38582 16.3698 4.74273 17.2579 4.09967 18.1383C3.84703 18.4751 3.86236 18.7354 4.16093 19.034C4.90351 19.7689 5.63844 20.5115 6.37337 21.2464C6.46524 21.3383 6.54946 21.4378 6.60305 21.5527C6.77147 21.9431 6.64897 22.4024 6.30447 22.6474C5.95232 22.9077 5.49298 22.8771 5.15614 22.5632C4.95709 22.3718 4.7657 22.1728 4.57431 21.9814C3.90062 21.3077 3.21929 20.634 2.55325 19.9603C2.16282 19.5622 1.9408 19.1029 2.01735 18.5287C2.06329 18.1613 2.2011 17.8321 2.38483 17.5182C2.76761 16.8828 3.1657 16.255 3.55613 15.6273C4.17623 14.632 4.81163 13.6521 5.48532 12.6875C5.937 12.0291 6.56475 11.6004 7.29969 11.3019C7.70543 11.1411 8.11883 11.1181 8.54755 11.1181H10.3925C10.4155 11.1105 10.4538 11.1105 10.5074 11.1105H12.1993C12.7581 11.1105 13.3246 11.1181 13.8911 11.1105C13.9294 11.1105 13.9524 11.1105 13.9753 11.1181H15.338C15.361 11.1105 15.384 11.1105 15.4146 11.1105C15.606 11.1181 15.7974 11.1181 15.9964 11.1181H16.027C16.762 11.1181 17.3974 11.4014 18.0022 11.7995C18.4845 12.1287 18.8213 12.588 19.1428 13.0703C19.8318 14.0808 20.4902 15.1067 21.1333 16.1478C21.4701 16.699 21.8453 17.2273 22.1285 17.8168C22.4654 18.5364 22.4577 19.2177 21.9065 19.8455C21.8453 19.922 21.784 19.9909 21.7151 20.0522C21.095 20.6723 20.4826 21.2924 19.8625 21.9048C19.6022 22.1575 19.3725 22.4484 19.0739 22.6627C18.6759 22.9536 18.0787 22.8235 17.8261 22.4024C17.5888 22.012 17.6424 21.5909 17.9639 21.2618C18.7141 20.5192 19.4644 19.7689 20.207 19.0187C20.4902 18.7354 20.5132 18.4675 20.2682 18.1459C20.0309 17.8244 19.8012 17.5029 19.5639 17.1813C19.051 16.477 18.5381 15.7804 18.0251 15.0837C17.8873 14.8847 17.6959 14.7928 17.4586 14.8464C17.1983 14.9076 17.0529 15.0761 17.0146 15.3364C17.0069 15.3976 16.9993 15.4665 16.9916 15.5277C16.9304 16.2474 16.8691 16.967 16.8079 17.6866C16.7007 18.8579 16.5935 20.0292 16.4864 21.2005C16.3868 22.2953 16.2873 23.39 16.1955 24.4924C16.1802 24.6914 16.2261 24.8675 16.3945 24.99C16.5859 25.1278 16.8002 25.1737 17.0146 25.0666C17.2213 24.967 17.3055 24.7833 17.3285 24.569C17.3514 24.278 17.3744 23.9948 17.3974 23.7039C17.405 23.5508 17.4203 23.5431 17.5505 23.6197C18.4156 24.1173 19.3649 23.9948 20.0692 23.2905C20.7582 22.6015 21.4472 21.9201 22.1285 21.2311C22.4883 20.8713 22.8558 20.5192 23.1161 20.0675C23.3687 19.6235 23.5065 19.1488 23.4836 18.6359C23.4529 18.0311 23.2462 17.4799 22.9477 16.9593ZM6.5571 19.8684C6.28915 19.5852 6.02121 19.3096 5.74561 19.034C5.60015 18.8809 5.44704 18.7278 5.29393 18.5746C5.24034 18.5287 5.22503 18.4904 5.27097 18.4292C5.62312 17.9545 5.95998 17.4876 6.31214 17.0206C6.31979 17.0053 6.32743 16.9976 6.36571 16.9746C6.44992 17.9392 6.53414 18.8885 6.61835 19.8302C6.60304 19.8455 6.58006 19.8531 6.5571 19.8684ZM17.9945 16.9976C18.0022 16.9899 18.0175 16.9899 18.0251 16.9823C18.0787 17.0512 18.1247 17.1201 18.1783 17.1813C18.4768 17.5871 18.7677 17.9928 19.0663 18.3986C19.1046 18.4522 19.1505 18.4981 19.0816 18.567C18.6605 18.9804 18.2395 19.4015 17.8184 19.8225C17.8108 19.8302 17.7955 19.8378 17.7342 19.8684C17.8261 18.8885 17.9103 17.9392 17.9945 16.9976Z" fill="#7C7C7C"/>
<path d="M12.3519 0.293166C9.97867 0.193643 7.96525 2.00035 7.85042 4.43481C7.73558 6.91522 9.7337 8.9516 12.1682 8.9516C14.3194 8.98222 16.5165 7.25207 16.5089 4.57262C16.5089 2.38313 14.794 0.400343 12.3519 0.293166ZM12.1835 7.82623C10.4074 7.82623 8.99875 6.4176 8.97579 4.67213C8.94516 2.82714 10.4916 1.3726 12.1835 1.42619C13.8753 1.38025 15.4218 2.8348 15.3911 4.68745C15.3605 6.41761 13.9366 7.82623 12.1835 7.82623Z" fill="#7C7C7C"/>
<path fill-rule="evenodd" clip-rule="evenodd" d="M3.76002 13.6017C4.02891 13.3632 4.44019 13.3879 4.67862 13.6568L6.41645 15.6166C6.65489 15.8855 6.6302 16.2968 6.3613 16.5352C6.09241 16.7737 5.68113 16.749 5.44269 16.4801L3.70487 14.5203C3.46643 14.2514 3.49112 13.8401 3.76002 13.6017Z" fill="#7C7C7C"/>
<path fill-rule="evenodd" clip-rule="evenodd" d="M20.5001 13.7145C20.7617 13.961 20.7739 14.3729 20.5274 14.6344L18.8967 16.3645C18.6502 16.6261 18.2384 16.6383 17.9769 16.3918C17.7153 16.1453 17.7031 15.7335 17.9496 15.4719L19.5803 13.7418C19.8268 13.4802 20.2386 13.468 20.5001 13.7145Z" fill="#7C7C7C"/>
</svg>
