<svg width="24" height="26" viewBox="0 0 24 26" fill="none" xmlns="http://www.w3.org/2000/svg">
<path d="M22.9477 17.4435C22.5878 16.8234 22.1974 16.2263 21.8223 15.6215C21.2022 14.6263 20.5668 13.6464 19.9084 12.6741C19.4644 12.0234 18.9132 11.5028 18.2318 11.1047C17.451 10.6378 16.5936 10.454 15.6902 10.4617C14.5189 10.4693 13.3553 10.4617 12.0079 10.4617C10.8442 10.4846 9.50449 10.4234 8.16477 10.4846C6.87098 10.5459 5.80686 11.1277 4.94178 12.054C4.48245 12.5364 4.1456 13.1105 3.78579 13.6694C3.17334 14.6033 2.57623 15.5526 1.98675 16.4943C1.66522 17.0072 1.3207 17.5124 1.10634 18.0866C0.922608 18.5919 0.81543 19.1048 0.914952 19.6407C1.03744 20.3373 1.41256 20.8886 1.89486 21.3709C2.6987 22.1823 3.50253 22.9862 4.31402 23.7977C5.00302 24.479 5.95997 24.5938 6.80208 24.1039C6.93988 24.0197 6.94755 24.0273 6.96286 24.2034C6.99348 24.5096 7.00879 24.8082 7.04706 25.1144C7.093 25.4436 7.36859 25.6503 7.66716 25.5967C8.01932 25.5431 8.20305 25.2905 8.16477 24.9383C8.10352 24.3718 8.04994 23.7977 8.00401 23.2311C7.92745 22.3354 7.85856 21.4398 7.77435 20.5441C7.67483 19.3651 7.56765 18.1862 7.46047 17.0072C7.42219 16.6015 7.39157 16.188 7.33798 15.7823C7.30736 15.5373 7.14658 15.3842 6.90161 15.3306C6.67194 15.2694 6.4882 15.3612 6.3504 15.5373C6.23557 15.6828 6.13606 15.8282 6.02888 15.9737C5.38582 16.8541 4.74273 17.7345 4.09967 18.6148C3.84703 18.9593 3.86236 19.212 4.16093 19.5182C4.90351 20.2532 5.63844 20.9881 6.37337 21.723C6.46524 21.8149 6.54946 21.9144 6.60305 22.0369C6.77147 22.4273 6.64897 22.879 6.30447 23.1316C5.95232 23.3843 5.49298 23.3536 5.15614 23.0398C4.95709 22.856 4.7657 22.657 4.57431 22.458C3.90062 21.7843 3.21929 21.1182 2.55325 20.4369C2.16282 20.0464 1.9408 19.5795 2.01735 19.0053C2.06329 18.6455 2.2011 18.3086 2.38483 18.0024C2.76761 17.367 3.1657 16.7392 3.55613 16.1115C4.17623 15.1163 4.81163 14.1364 5.48532 13.1718C5.937 12.5134 6.56475 12.0847 7.29969 11.7861C7.85854 11.5641 8.44036 11.6024 9.02219 11.5947H15.4146C15.606 11.6024 15.7974 11.6024 15.9964 11.6024C16.7467 11.5947 17.3897 11.8703 18.0022 12.2837C18.4845 12.6129 18.8213 13.0722 19.1428 13.5469C19.8318 14.5651 20.4902 15.5909 21.1333 16.6321C21.4701 17.1833 21.8453 17.7115 22.1285 18.2933C22.4654 19.0206 22.4577 19.702 21.9065 20.3297C21.8453 20.3986 21.784 20.4675 21.7151 20.5364C21.095 21.1565 20.4826 21.7766 19.8625 22.3891C19.6022 22.6417 19.3725 22.9249 19.0739 23.1469C18.6759 23.4379 18.0787 23.3077 17.8261 22.879C17.5888 22.4886 17.6424 22.0752 17.9639 21.746C18.7141 20.9957 19.4644 20.2531 20.207 19.5029C20.4902 19.2196 20.5132 18.9517 20.2682 18.6302C20.0309 18.3086 19.8012 17.9794 19.5639 17.6579C19.051 16.9612 18.5381 16.2569 18.0251 15.5603C17.8873 15.3689 17.6959 15.2694 17.4586 15.3306C17.1983 15.3919 17.0529 15.5603 17.0146 15.8206C17.0069 15.8818 16.9993 15.9431 16.9916 16.012C16.9304 16.7316 16.8691 17.4512 16.8079 18.1708C16.7007 19.3421 16.5935 20.5134 16.4864 21.6847C16.3868 22.7795 16.2873 23.8742 16.1955 24.969C16.1802 25.168 16.2261 25.3518 16.3945 25.4742C16.5859 25.612 16.8002 25.658 17.0146 25.5431C17.2213 25.4436 17.3055 25.2675 17.3285 25.0532C17.3514 24.7623 17.3744 24.4713 17.3974 24.1881C17.405 24.035 17.4203 24.0273 17.5505 24.0962C18.4156 24.6015 19.3649 24.479 20.0692 23.7747C20.7582 23.0857 21.4472 22.3967 22.1285 21.7077C22.4883 21.3479 22.8558 20.9957 23.1161 20.5517C23.3687 20.1 23.5065 19.633 23.4836 19.1201C23.4529 18.5153 23.2462 17.9565 22.9477 17.4435ZM6.5571 20.345C6.28915 20.0694 6.02121 19.7938 5.74561 19.5182C5.60015 19.3651 5.44704 19.212 5.29393 19.0589C5.24034 19.0129 5.22503 18.9747 5.27097 18.9058C5.62312 18.4388 5.95998 17.9718 6.31214 17.4971C6.31979 17.4895 6.32743 17.4818 6.36571 17.4589C6.44992 18.4235 6.53414 19.3651 6.61835 20.3144C6.60304 20.3297 6.58006 20.3374 6.5571 20.345ZM17.9945 17.4742C18.0022 17.4742 18.0175 17.4742 18.0251 17.4665C18.0787 17.5354 18.1247 17.5967 18.1783 17.6656C18.4768 18.0713 18.7677 18.4771 19.0663 18.8828C19.1046 18.9364 19.1505 18.9823 19.0816 19.0512C18.6605 19.4646 18.2395 19.8857 17.8184 20.2991C17.8108 20.3144 17.7955 20.3144 17.7342 20.3527C17.8261 19.3728 17.9103 18.4235 17.9945 17.4742Z" fill="#7C7C7C"/>
<path d="M15.3843 11.5949C15.2924 11.5949 15.2311 11.6332 15.1852 11.7404C14.6952 12.9347 14.19 14.1366 13.6924 15.3309C13.5086 15.7749 13.3249 16.2112 13.1335 16.6553C13.0876 16.7548 13.1029 16.8084 13.2177 16.8313C13.3172 16.862 13.4168 16.9002 13.5163 16.9309C13.7919 17.038 13.8684 17.2065 13.7689 17.4821C13.5546 18.0562 13.3402 18.6227 13.1259 19.1969C13.034 19.4342 12.9498 19.6715 12.8579 19.9089C12.7507 20.1768 12.59 20.261 12.3144 20.1692C11.8168 20.0007 11.3115 19.8323 10.8139 19.6562C10.5842 19.5797 10.4847 19.3883 10.5689 19.1586C10.8062 18.5309 11.0435 17.9031 11.2885 17.2754C11.3498 17.1146 11.3651 16.9845 11.2962 16.816C10.722 15.461 10.1555 14.0983 9.58899 12.7356C9.44353 12.3911 9.30573 12.0543 9.16028 11.7174C9.13731 11.6485 9.10667 11.5949 9.02246 11.5949H10.5076C10.3392 11.5949 10.3316 11.5949 10.4005 11.7557C10.6531 12.3758 10.9134 12.9882 11.1737 13.616C11.4799 14.3509 11.7861 15.0935 12.1 15.8361C12.1153 15.882 12.123 15.9586 12.1842 15.9586C12.2378 15.9586 12.2455 15.8744 12.2684 15.8285C12.4445 15.3998 12.6206 14.971 12.7967 14.5423C13.1948 13.6007 13.5852 12.6591 13.9833 11.7174C14.0292 11.6026 13.9909 11.5949 13.8914 11.5949H15.3843Z" fill="#7C7C7C"/>
<path d="M12.1682 9.43591C9.72606 9.43591 7.7356 7.39954 7.85043 4.91914C7.96527 2.48467 9.97868 0.677961 12.3519 0.785139C14.794 0.892317 16.5012 2.86745 16.5089 5.06459C16.5165 7.73639 14.3194 9.46654 12.1682 9.43591ZM12.1835 1.90284C10.4916 1.84926 8.9452 3.30381 8.96816 5.15646C8.99113 6.89427 10.4074 8.31054 12.1758 8.31054C13.9366 8.31054 15.3529 6.90192 15.3835 5.17176C15.4218 3.31911 13.8754 1.86457 12.1835 1.90284Z" fill="#7C7C7C"/>
</svg>
