<svg width="11" height="11" viewBox="0 0 11 11" fill="none" xmlns="http://www.w3.org/2000/svg">
<path d="M1.65 8.80064H3.982C4.05438 8.80106 4.12614 8.78719 4.19315 8.75982C4.26016 8.73246 4.32111 8.69214 4.3725 8.64118L8.1785 4.83079L9.7405 3.30223C9.79205 3.25112 9.83297 3.1903 9.86089 3.1233C9.88881 3.0563 9.90319 2.98443 9.90319 2.91184C9.90319 2.83926 9.88881 2.76739 9.86089 2.70039C9.83297 2.63339 9.79205 2.57257 9.7405 2.52146L7.4085 0.162642C7.35737 0.111106 7.29654 0.0702012 7.22952 0.0422865C7.1625 0.0143719 7.09061 0 7.018 0C6.94539 0 6.87351 0.0143719 6.80648 0.0422865C6.73946 0.0702012 6.67863 0.111106 6.6275 0.162642L5.0765 1.71869L1.2595 5.52909C1.20853 5.58046 1.1682 5.64139 1.14083 5.70839C1.11346 5.77538 1.09958 5.84711 1.1 5.91947V8.2508C1.1 8.39662 1.15795 8.53648 1.26109 8.63959C1.36424 8.74271 1.50413 8.80064 1.65 8.80064ZM7.018 1.3283L8.5745 2.88435L7.7935 3.66513L6.237 2.10908L7.018 1.3283ZM2.2 6.14491L5.4615 2.88435L7.018 4.4404L3.7565 7.70096H2.2V6.14491ZM10.45 9.90032H0.55C0.404131 9.90032 0.264236 9.95825 0.161091 10.0614C0.0579462 10.1645 0 10.3043 0 10.4502C0 10.596 0.0579462 10.7358 0.161091 10.839C0.264236 10.9421 0.404131 11 0.55 11H10.45C10.5959 11 10.7358 10.9421 10.8389 10.839C10.9421 10.7358 11 10.596 11 10.4502C11 10.3043 10.9421 10.1645 10.8389 10.0614C10.7358 9.95825 10.5959 9.90032 10.45 9.90032Z" fill="white"/>
</svg>
