<svg width="148" height="47" viewBox="0 0 148 47" fill="none" xmlns="http://www.w3.org/2000/svg">
<path d="M56.2432 22.6697H60.9794C62.8739 22.6697 63.939 23.7463 63.939 25.0916C63.9496 25.3955 63.8896 25.6976 63.764 25.9733C63.6383 26.2489 63.4506 26.4903 63.2161 26.6776C62.9961 26.8376 62.7519 26.9597 62.4932 27.0388V27.1083C62.8078 27.1748 63.107 27.3022 63.3748 27.4833C63.6708 27.6846 63.9101 27.9614 64.0691 28.2863C64.2281 28.6112 64.3013 28.973 64.2812 29.3357C64.2812 30.88 63.096 32.0909 60.925 32.0909H56.2432V22.6697ZM60.7166 26.3743C61.5052 26.3743 61.8995 25.9714 61.8995 25.4342C61.8995 24.8971 61.5052 24.4919 60.7166 24.4919H58.2125V26.3743H60.7166ZM60.7823 30.2734C61.7817 30.2734 62.2303 29.8103 62.2303 29.1967C62.2303 28.5831 61.7771 28.1224 60.7823 28.1224H58.2125V30.2734H60.7823Z" fill="#4B1CA1"/>
<path d="M67.2302 22.6697H71.375L73.8089 32.0817H71.7694L71.2436 29.9978H67.3617L66.8359 32.0817H64.7964L67.2302 22.6697ZM70.7836 28.1154L69.8635 24.5521H68.744L67.824 28.1154H70.7836Z" fill="#4B1CA1"/>
<path d="M74.731 22.6697H78.0871C81.0467 22.6697 83.0863 24.7535 83.0863 27.3745C83.0863 29.9955 81.0467 32.0817 78.0871 32.0817H74.731V22.6697ZM78.0871 30.1993C79.9295 30.1993 81.0467 29.0555 81.0467 27.3745C81.0467 25.6936 79.9295 24.5521 78.0871 24.5521H76.7048V30.1993H78.0871Z" fill="#4B1CA1"/>
<path d="M84.4028 22.6697H87.3624L89.5991 28.0483H89.93L92.1667 22.6697H95.1263V32.0817H93.1525V26.0987L93.2839 24.8878H93.1525L91.0472 29.9307H88.4819L86.3767 24.8878H86.2452L86.3767 26.0987V32.0817H84.4028V22.6697Z" fill="#4B1CA1"/>
<path d="M97.7593 19.6458C97.9514 19.6589 98.1356 19.729 98.2892 19.8476C98.4428 19.9662 98.5592 20.128 98.624 20.3132C98.6888 20.4985 98.6992 20.699 98.654 20.8902C98.6088 21.0814 98.5099 21.2549 98.3694 21.3895C98.229 21.524 98.0531 21.6137 97.8635 21.6475C97.6738 21.6813 97.4786 21.6578 97.3019 21.5798C97.1251 21.5018 96.9745 21.3728 96.8686 21.2085C96.7626 21.0443 96.706 20.852 96.7056 20.6553C96.7156 20.3791 96.8319 20.1181 97.0293 19.9291C97.2266 19.7401 97.4889 19.6383 97.7593 19.6458ZM96.7713 22.6697H98.7451V32.0817H96.7713V22.6697Z" fill="#4B1CA1"/>
<path d="M100.457 22.6697H103.022L106.641 29.3241H106.772L106.641 28.1826V22.6697H108.615V32.0817H106.049L102.43 25.4273H102.299L102.43 26.5688V32.0817H100.457V22.6697Z" fill="#4B1CA1"/>
<path d="M109.603 22.6697H117.496V24.5521H114.536V32.0817H112.562V24.5521H109.603V22.6697Z" fill="#4B1CA1"/>
<path d="M123.154 22.4011C126.05 22.4011 128.221 24.6193 128.221 27.3769C128.221 30.1345 126.05 32.3503 123.154 32.3503C120.258 32.3503 118.089 30.1322 118.089 27.3769C118.089 24.6216 120.26 22.4011 123.154 22.4011ZM123.154 30.4679C124.865 30.4679 126.116 29.1898 126.116 27.3769C126.116 25.5639 124.865 24.2835 123.154 24.2835C121.443 24.2835 120.195 25.5616 120.195 27.3769C120.195 29.1921 121.446 30.4679 123.154 30.4679Z" fill="#4B1CA1"/>
<path d="M129.538 22.6697H132.103L135.722 29.3241H135.854L135.722 28.1826V22.6697H137.694V32.0817H135.129L131.51 25.4273H131.38L131.51 26.5688V32.0817H129.538V22.6697Z" fill="#4B1CA1"/>
<path d="M57.8888 36.6663H62.0335L64.4674 46.076H62.4279L61.8998 43.9921H58.0202L57.4922 46.076H55.4526L57.8888 36.6663ZM61.4398 42.112L60.5198 38.5487H59.4003L58.4802 42.112H61.4398Z" fill="#4B1CA1"/>
<path d="M64.9932 44.2051L69.8631 38.6922V38.5579H65.1246V36.6755H72.4284V38.5579L67.5585 44.0709V44.2051H72.5599V46.0852H64.9932V44.2051Z" fill="#4B1CA1"/>
<path d="M84.6406 36.6663H88.9826C91.2329 36.6663 92.6084 38.0786 92.6084 39.8268C92.6084 41.2901 91.6861 42.2602 90.5032 42.7163L92.6084 46.0783H90.3717L88.4636 42.9849H86.6212V46.0783H84.6474L84.6406 36.6663ZM88.9169 41.1025C90.0363 41.1025 90.5621 40.5792 90.5621 39.8268C90.5621 39.0743 90.0363 38.5487 88.9169 38.5487H86.6145V41.0956L88.9169 41.1025Z" fill="#4B1CA1"/>
<path d="M93.9185 36.6663H98.6547C100.549 36.6663 101.617 37.7429 101.617 39.0858C101.627 39.39 101.567 39.6925 101.441 39.9682C101.315 40.244 101.127 40.4852 100.891 40.6719C100.672 40.8326 100.427 40.9554 100.169 41.0354V41.1025C100.483 41.169 100.783 41.2972 101.05 41.4799C101.346 41.6812 101.585 41.958 101.744 42.2829C101.903 42.6078 101.977 42.9695 101.957 43.3322C101.957 44.8789 100.771 46.0898 98.6003 46.0898H93.9298L93.9185 36.6663ZM98.3918 40.3709C99.1827 40.3709 99.577 39.968 99.577 39.4285C99.577 38.889 99.1827 38.4885 98.3918 38.4885H95.8991V40.3709H98.3918ZM98.4575 44.27C99.4569 44.27 99.9056 43.8069 99.9056 43.1933C99.9056 42.5797 99.4524 42.119 98.4575 42.119H95.8923V44.27H98.4575Z" fill="#4B1CA1"/>
<path d="M104.896 36.6663H109.041L111.474 46.0783H109.435L108.909 43.9944H105.027L104.501 46.0783H102.462L104.896 36.6663ZM108.449 42.112L107.529 38.5487H106.41L105.489 42.112H108.449Z" fill="#4B1CA1"/>
<path d="M112.997 36.6593L115.209 40.5584H115.392L117.604 36.6593H119.775L116.288 42.6422V46.0713H114.314V42.6422L110.826 36.6593H112.997Z" fill="#4B1CA1"/>
<path d="M124.974 36.3909C126.947 36.3909 128.13 37.2916 128.787 38.1783C129.186 38.7058 129.478 39.3097 129.644 39.9542H127.605C127.483 39.6445 127.305 39.3615 127.079 39.1207C126.804 38.8392 126.475 38.6187 126.113 38.4729C125.75 38.3271 125.363 38.2591 124.974 38.2733C123.263 38.2733 122.012 39.5514 122.012 41.3643C122.012 43.2606 123.183 44.4576 124.974 44.4576C125.379 44.4751 125.784 44.3995 126.157 44.2364C126.53 44.0733 126.863 43.8269 127.131 43.5153C127.367 43.2396 127.55 42.9206 127.67 42.5752H129.71C129.524 43.2544 129.216 43.8926 128.803 44.4576C128.361 45.0628 127.781 45.5498 127.115 45.8775C126.449 46.2052 125.715 46.3639 124.976 46.34C122.014 46.34 119.909 44.1891 119.909 41.3643C119.909 38.5395 122.014 36.3909 124.976 36.3909" fill="#4B1CA1"/>
<path d="M132.342 36.6663H136.486L138.922 46.0783H136.883L136.355 43.9944H132.473L131.947 46.0783H129.908L132.342 36.6663ZM135.895 42.112L134.975 38.5487H133.855L132.935 42.112H135.895Z" fill="#4B1CA1"/>
<path d="M139.842 36.6593H142.407L146.026 43.3137H146.158L146.026 42.1722V36.6593H148V46.0713H145.435L141.816 39.4169H141.684L141.816 40.5584V46.0713H139.842V36.6593Z" fill="#4B1CA1"/>
<path d="M78.3816 36.4071C77.3619 36.4029 76.3659 36.7216 75.5307 37.3195C74.6955 37.9174 74.0622 38.7651 73.7179 39.7459H75.771C76.0419 39.288 76.4254 38.9107 76.8835 38.6515C77.3415 38.3923 77.8581 38.2603 78.3816 38.2686C79.8886 38.2686 80.9401 39.3453 81.1758 40.7669H73.4709C73.4596 40.9713 73.4596 41.1761 73.4709 41.3805C73.4684 42.038 73.5941 42.6895 73.8405 43.2969C74.087 43.9043 74.4493 44.4556 74.9064 44.9185C75.3635 45.3814 75.9061 45.7467 76.5028 45.9931C77.0994 46.2396 77.7381 46.3622 78.3816 46.3539C79.6738 46.3539 80.9131 45.8295 81.8268 44.8959C82.7406 43.9623 83.2539 42.6961 83.2539 41.3759C83.2539 40.0556 82.7406 38.7894 81.8268 37.8559C80.9131 36.9223 79.6738 36.3978 78.3816 36.3978V36.4071ZM78.3816 44.4831C77.7206 44.4901 77.0775 44.2634 76.5612 43.8414C76.045 43.4195 75.6874 42.8282 75.5489 42.1677H81.1395C80.8472 43.4991 79.8229 44.4831 78.3816 44.4831Z" fill="#4B1CA1"/>
<path d="M11.7905 0L32.0771 0.0694585C34.5699 0.134289 36.9199 -0.0578855 39.1408 0.259321C41.1803 0.583474 43.1858 1.20863 44.8061 2.73446C45.6897 3.59716 46.3179 4.69637 46.6191 5.90652C46.9409 7.30732 46.8797 8.8401 46.6372 10.2918C46.0616 13.4338 44.8424 16.4924 43.3785 19.7316C41.672 23.3899 34.6651 37.9027 34.6651 37.9027C33.4754 40.1672 30.9395 39.8777 30.1758 38.4792C29.4122 37.0808 30.7786 35.2771 32.0341 33.1932C32.1179 33.052 41.4409 19.852 42.3179 18.31C43.8929 15.4621 45.2254 12.7068 45.9302 9.92138C46.2338 8.65256 46.4627 7.33279 46.1749 6.13111C46.0664 5.5526 45.8469 5.00175 45.5291 4.51035C45.2317 4.09095 44.8938 3.7031 44.5206 3.35266C42.9864 2.02363 41.0489 1.50036 39.0501 1.38923C36.9199 1.26883 34.5359 1.70411 31.9457 1.96112L11.2195 4.35059C9.63315 4.53119 8.12842 3.7949 8.12842 2.42883C8.12842 0.520957 10.1136 0.113448 11.5775 0.0231481C11.6478 0.0231481 11.7225 0.0231481 11.7905 0.0231481" fill="#07A7E2"/>
<path d="M3.61664 7.22187L29.5415 3.62841L37.6883 2.50082L41.0649 2.01922C42.1267 1.87715 43.2063 2.04241 44.1808 2.49619C45.1281 2.94537 46.2204 3.89699 46.5626 5.3441C46.9047 6.79121 46.8186 8.01604 46.0391 9.9517C45.3279 11.6107 44.4215 13.1751 43.3401 14.6102L40.1675 18.8242L24.0347 39.8733C22.3623 42.0336 19.5205 41.2185 18.997 39.4264C18.4078 37.4121 20.4882 35.8237 22.1697 33.9135C22.2444 33.8302 39.2429 16.5876 39.2429 16.5876L42.7305 12.744C43.7456 11.7103 44.5994 10.5233 45.2618 9.22467C45.6429 8.45818 45.9015 7.63429 46.0277 6.78427C46.0776 6.36055 46.0481 5.26306 45.5247 4.49899C45.1349 3.92941 44.5842 3.31352 44.0448 3.10976C42.173 2.30401 40.0813 3.24174 37.7789 3.71639L29.4825 5.74003L3.08862 12.1768C1.17145 12.6399 -0.0839961 11.4706 0.00438396 9.69006C0.0859656 8.12718 1.62469 7.60622 3.40362 7.26586C3.4716 7.25197 3.54865 7.24039 3.61437 7.23113" fill="#4B1CA1"/>
<path d="M24.8711 8.96286L34.2439 6.23535L41.2985 4.18392C42.2457 3.95238 43.1114 3.59813 44.0428 3.43606C44.3573 3.38406 44.6794 3.40807 44.9832 3.50618C45.287 3.60429 45.5641 3.77376 45.7923 4.00101C47.3446 5.66345 44.7906 8.4419 43.9952 9.25923C43.116 10.1854 42.1823 11.1115 41.1716 12.0631L33.8179 19.1505L16.4002 36.363L16.092 36.6663C13.7624 38.9238 10.8346 37.9189 10.4267 35.68C9.89637 32.795 12.9942 31.1974 15.2513 29.3011C15.385 29.1877 26.1288 21.7947 32.9953 16.4809L40.63 10.6045L43.2429 8.56924C44.1493 7.85611 45.2439 6.89059 45.6178 5.85562C45.7157 5.61729 45.7476 5.35603 45.7101 5.10041C45.6725 4.84479 45.5669 4.60464 45.4048 4.4062C45.2543 4.23224 45.0632 4.10003 44.8492 4.02189C44.6352 3.94375 44.4054 3.92223 44.181 3.95933C43.745 4.02241 43.32 4.14871 42.9188 4.33442L41.4435 4.94568L34.4184 7.86306L24.8734 11.8247C20.885 13.5056 17.7373 15.1542 12.4571 17.289C12.1189 17.4244 11.755 17.4798 11.3928 17.451C11.0305 17.4221 10.6794 17.3097 10.3658 17.1223C10.0522 16.935 9.78423 16.6774 9.58203 16.369C9.37983 16.0606 9.24868 15.7094 9.1984 15.3417C8.87207 13.4547 10.8391 12.73 12.5478 12.2762C14.1817 11.8432 21.03 10.058 24.8779 8.96286" fill="#9325C8"/>
</svg>
