<svg width="24" height="24" viewBox="0 0 24 24" fill="none" xmlns="http://www.w3.org/2000/svg">
<path d="M12.0003 2.4C10.0908 2.4 8.25942 3.15857 6.90916 4.50883C5.5589 5.85909 4.80033 7.69044 4.80033 9.6V13.9032L3.95193 14.7516C3.78416 14.9194 3.66991 15.1332 3.62363 15.366C3.57735 15.5987 3.60111 15.8399 3.69192 16.0592C3.78272 16.2784 3.93649 16.4658 4.13378 16.5977C4.33107 16.7295 4.56303 16.7999 4.80033 16.8H19.2003C19.4376 16.7999 19.6696 16.7295 19.8669 16.5977C20.0642 16.4658 20.2179 16.2784 20.3087 16.0592C20.3995 15.8399 20.4233 15.5987 20.377 15.366C20.3307 15.1332 20.2165 14.9194 20.0487 14.7516L19.2003 13.9032V9.6C19.2003 7.69044 18.4418 5.85909 17.0915 4.50883C15.7412 3.15857 13.9099 2.4 12.0003 2.4ZM12.0003 21.6C11.0456 21.6 10.1299 21.2207 9.45475 20.5456C8.77961 19.8705 8.40033 18.9548 8.40033 18H15.6003C15.6003 18.9548 15.221 19.8705 14.5459 20.5456C13.8708 21.2207 12.9551 21.6 12.0003 21.6Z" fill="#3783F0"/>
</svg>
