<svg width="12" height="12" viewBox="0 0 12 12" fill="none" xmlns="http://www.w3.org/2000/svg">
<path d="M1.17627 1.88285C1.17627 1.73919 1.23334 1.60142 1.33492 1.49984C1.4365 1.39825 1.57428 1.34119 1.71794 1.34119H10.3846C10.5283 1.34119 10.666 1.39825 10.7676 1.49984C10.8692 1.60142 10.9263 1.73919 10.9263 1.88285V3.2836C10.9262 3.42725 10.8692 3.565 10.7676 3.66656L7.29331 7.14081C7.19172 7.24237 7.13463 7.38012 7.1346 7.52377V8.92452L4.96794 11.0912V7.52377C4.96791 7.38012 4.91082 7.24237 4.80923 7.14081L1.33498 3.66656C1.23339 3.565 1.1763 3.42725 1.17627 3.2836V1.88285Z" stroke="#666666" stroke-linecap="round" stroke-linejoin="round"/>
</svg>
